{
    "asset" : {
        "generator" : "Khronos glTF Blender I/O v1.0.5",
        "version" : "2.0"
    },
    "scene" : 0,
    "scenes" : [
        {
            "name" : "Scene",
            "nodes" : [
                0,
                1
            ]
        }
    ],
    "nodes" : [
        {
            "mesh" : 0,
            "name" : "\u5e73\u9762",
            "rotation" : [
                0.7071067690849304,
                0,
                0,
                0.7071067690849304
            ],
            "scale" : [
                0.30000001192092896,
                0.30000001192092896,
                0.30000001192092896
            ],
            "translation" : [
                0,
                1.5999999046325684,
                0.7134239673614502
            ]
        },
        {
            "name" : "Plane",
            "rotation" : [
                0.7071067690849304,
                0,
                0,
                0.7071067690849304
            ],
            "translation" : [
                0,
                6.1895952224731445,
                2.4477357864379883
            ]
        }
    ],
    "meshes" : [
        {
            "name" : "\u5e73\u9762",
            "primitives" : [
                {
                    "attributes" : {
                        "POSITION" : 0,
                        "NORMAL" : 1
                    },
                    "indices" : 2
                }
            ]
        }
    ],
    "accessors" : [
        {
            "bufferView" : 0,
            "componentType" : 5126,
            "count" : 3489,
            "max" : [
                4.262080669403076,
                0.1576528400182724,
                5.240097999572754
            ],
            "min" : [
                -4.262080669403076,
                -5.187299728393555,
                -4.804869174957275
            ],
            "type" : "VEC3"
        },
        {
            "bufferView" : 1,
            "componentType" : 5126,
            "count" : 3489,
            "type" : "VEC3"
        },
        {
            "bufferView" : 2,
            "componentType" : 5123,
            "count" : 18399,
            "type" : "SCALAR"
        }
    ],
    "bufferViews" : [
        {
            "buffer" : 0,
            "byteLength" : 41868,
            "byteOffset" : 0
        },
        {
            "buffer" : 0,
            "byteLength" : 41868,
            "byteOffset" : 41868
        },
        {
            "buffer" : 0,
            "byteLength" : 36798,
            "byteOffset" : 83736
        }
    ],
    "buffers" : [
        {
            "byteLength" : 120536,
            "uri" : "data:application/octet-stream;base64,"
        }
    ]
}
